<svg width="183" height="183" viewBox="0 0 183 183" fill="none" xmlns="http://www.w3.org/2000/svg">
<g filter="url(#filter0_d_426_3)">
<circle cx="91.5" cy="87.5" r="87.5" fill="#5C6E52"/>
</g>
<path d="M128.375 68.2917C128.761 67.9062 129.068 67.4483 129.277 66.9443C129.486 66.4402 129.594 65.8999 129.594 65.3542C129.594 64.8085 129.486 64.2681 129.277 63.7641C129.068 63.26 128.761 62.8022 128.375 62.4167L116.583 50.625C116.198 50.2387 115.74 49.9323 115.236 49.7232C114.732 49.5141 114.192 49.4065 113.646 49.4065C113.1 49.4065 112.56 49.5141 112.056 49.7232C111.552 49.9323 111.094 50.2387 110.708 50.625L92 69.3333L75.7917 53.125C72.5417 49.875 67.25 49.875 64 53.125L56.0833 61.0417C52.8333 64.2917 52.8333 69.5833 56.0833 72.8333L72.2917 89.0417L53.5 107.833V125.5H71.1667L90 106.667L106.208 122.875C110.167 126.833 115.5 125.375 118 122.875L125.917 114.958C129.167 111.708 129.167 106.417 125.917 103.167L109.708 86.9583L128.375 68.2917ZM62 66.9167L69.875 59L75.1667 64.2917L70.25 69.25L76.125 75.125L81.0833 70.1667L86.0833 75.1667L78.1667 83.0833L62 66.9167ZM108.792 97.9167L103.833 102.875L109.708 108.75L114.667 103.792L119.958 109.083L112.042 117L95.8333 100.792L103.75 92.875L108.792 97.9167ZM67.7083 117.167H61.8333V111.292L101.875 71.25L107.292 76.6667L107.75 77.125L67.7083 117.167ZM107.75 65.3333L113.625 59.4583L119.5 65.3333L113.625 71.2083L107.75 65.3333Z" fill="white"/>
<defs>
<filter id="filter0_d_426_3" x="0" y="0" width="183" height="183" filterUnits="userSpaceOnUse" color-interpolation-filters="sRGB">
<feFlood flood-opacity="0" result="BackgroundImageFix"/>
<feColorMatrix in="SourceAlpha" type="matrix" values="0 0 0 0 0 0 0 0 0 0 0 0 0 0 0 0 0 0 127 0" result="hardAlpha"/>
<feOffset dy="4"/>
<feGaussianBlur stdDeviation="2"/>
<feComposite in2="hardAlpha" operator="out"/>
<feColorMatrix type="matrix" values="0 0 0 0 0 0 0 0 0 0 0 0 0 0 0 0 0 0 0.25 0"/>
<feBlend mode="normal" in2="BackgroundImageFix" result="effect1_dropShadow_426_3"/>
<feBlend mode="normal" in="SourceGraphic" in2="effect1_dropShadow_426_3" result="shape"/>
</filter>
</defs>
</svg>
