<svg width="175" height="175" viewBox="0 0 175 175" fill="none" xmlns="http://www.w3.org/2000/svg">
<circle cx="87.5" cy="87.5" r="87.5" fill="#5C6E52"/>
<path d="M95.4292 101.217L104.267 92.3792L129.25 117.362L120.413 126.2L95.4292 101.217ZM110.917 79.6667C118.958 79.6667 125.5 73.125 125.5 65.0833C125.5 62.6667 124.833 60.4167 123.792 58.4167L112.542 69.6667L106.333 63.4583L117.583 52.2083C115.583 51.1667 113.333 50.5 110.917 50.5C102.875 50.5 96.3333 57.0417 96.3333 65.0833C96.3333 66.7917 96.6667 68.4167 97.2083 69.9167L89.5 77.625L82.0833 70.2083L85.0417 67.25L79.1667 61.375L88 52.5417C85.6562 50.2008 82.4792 48.886 79.1667 48.886C75.8542 48.886 72.6771 50.2008 70.3333 52.5417L55.5833 67.2917L61.4583 73.1667H49.7083L46.75 76.125L61.5 90.875L64.4583 87.9166V76.125L70.3333 82L73.2917 79.0417L80.7083 86.4583L49.8333 117.333L58.6667 126.167L106.083 78.7917C107.583 79.3333 109.208 79.6667 110.917 79.6667Z" fill="white"/>
</svg>
